<svg xmlns="http://www.w3.org/2000/svg" fill="none" viewBox="0 0 24 24" id="Service-Animal-2--Streamline-Guidance---Free.svg" height="24" width="24"><desc>Service Animal 2 Streamline Icon: https://streamlinehq.com</desc><path stroke="#000000" d="M18.2405 23.28V14.2965C19.5661 14.2965 20.6407 13.2219 20.6407 11.8963V11.5536H17.0059C16.0592 11.5536 15.2921 10.7855 15.2921 9.8389V12.5098C15.2921 14.0546 14.52 15.4971 13.2347 16.3539C11.9493 17.2108 11.1772 18.6533 11.1772 20.1981V22.7999H10.7999C9.872 22.7999 9.1198 22.0477 9.1198 21.1198V19.4396M13.4401 19.4396H14.8802V19.72C14.8802 20.5601 14.8802 21.1198 15.3123 21.9598C15.3132 21.9618 15.7443 22.7999 16.3204 22.7999M5.2795 23.28V17.0394C5.2795 15.979 4.4197 15.1193 3.3593 15.1193V7.4387S4.7994 6.4786 7.1996 6.4786S11.0399 7.4387 11.0399 7.4387V14.6393M7.0556 4.5584S5.5195 3.5983 5.5195 2.3982C5.5195 1.1064 6.918 0.2989 8.0368 0.9449C8.556 1.2447 8.8759 1.7987 8.8759 2.3982C8.8759 3.5983 7.3436 4.5584 7.3436 4.5584H7.0556Z" stroke-width="1"></path></svg>